<svg width="30" height="25" viewBox="0 0 30 25" fill="none" xmlns="http://www.w3.org/2000/svg">
<g clip-path="url(#clip0_280_832)">
<path d="M1.875 4.41875C3.53437 3.84062 5.91375 3.21719 8.2275 3.02344C10.7213 2.81406 12.8363 3.12187 14.0625 4.19844V19.4266C12.3094 18.5984 10.0875 18.4844 8.03813 18.6562C5.82563 18.8437 3.59437 19.3766 1.875 19.9234V4.41875ZM15.9375 4.19844C17.1637 3.12187 19.2788 2.81406 21.7725 3.02344C24.0863 3.21719 26.4656 3.84062 28.125 4.41875V19.9234C26.4037 19.3766 24.1744 18.8422 21.9619 18.6578C19.9106 18.4844 17.6906 18.5969 15.9375 19.4266V4.19844ZM15 2.78594C13.1531 1.4625 10.4756 1.26562 8.03813 1.46875C5.19938 1.70781 2.33438 2.51875 0.549375 3.19531C0.385592 3.25739 0.246704 3.35743 0.149289 3.48349C0.051875 3.60955 4.98214e-05 3.75631 0 3.90625L0 21.0937C4.34287e-05 21.2245 0.0394446 21.3531 0.114595 21.4678C0.189744 21.5826 0.298241 21.6798 0.430145 21.7505C0.56205 21.8212 0.713146 21.8633 0.869594 21.8727C1.02604 21.8822 1.18284 21.8588 1.32563 21.8047C2.97938 21.1797 5.64375 20.4281 8.22563 20.2109C10.8675 19.9891 13.0819 20.3469 14.2688 21.5813C14.3566 21.6725 14.4679 21.7461 14.5945 21.7967C14.721 21.8473 14.8596 21.8736 15 21.8736C15.1404 21.8736 15.279 21.8473 15.4055 21.7967C15.5321 21.7461 15.6434 21.6725 15.7313 21.5813C16.9181 20.3469 19.1325 19.9891 21.7725 20.2109C24.3563 20.4281 27.0225 21.1797 28.6744 21.8047C28.8172 21.8588 28.974 21.8822 29.1304 21.8727C29.2869 21.8633 29.438 21.8212 29.5699 21.7505C29.7018 21.6798 29.8103 21.5826 29.8854 21.4678C29.9606 21.3531 30 21.2245 30 21.0937V3.90625C30 3.75631 29.9481 3.60955 29.8507 3.48349C29.7533 3.35743 29.6144 3.25739 29.4506 3.19531C27.6656 2.51875 24.8006 1.70781 21.9619 1.46875C19.5244 1.26406 16.8469 1.4625 15 2.78594Z" fill="#FFBD2A"/>
</g>
<defs>
<clipPath id="clip0_280_832">
<rect width="30" height="25" fill="white"/>
</clipPath>
</defs>
</svg>
