<svg width="34" height="34" viewBox="0 0 34 34" fill="none" xmlns="http://www.w3.org/2000/svg">
<path d="M3.20189 11.348L30.0144 11.3859M2.39059 12.1338L15.7701 29.5203C15.8673 29.6473 15.9925 29.7502 16.1358 29.8212C16.2792 29.8921 16.4369 29.9291 16.5968 29.9293C16.7567 29.9296 16.9144 29.893 17.0579 29.8225C17.2013 29.752 17.3266 29.6494 17.4239 29.5226L30.8247 12.174C30.9565 12.0028 31.033 11.7955 31.044 11.5796C31.0551 11.3638 31.0002 11.1496 30.8867 10.9656L26.3491 3.62765C26.2557 3.47579 26.1251 3.35031 25.9696 3.26311C25.814 3.17592 25.6389 3.12991 25.4606 3.12946L7.7657 3.10446C7.58748 3.10441 7.41223 3.14992 7.25662 3.23667C7.10101 3.32343 6.97019 3.44854 6.87659 3.60013L2.3301 10.9253C2.21632 11.1089 2.16118 11.3229 2.17198 11.5388C2.18279 11.7547 2.25903 11.9622 2.39059 12.1338V12.1338Z" stroke="#26335D" stroke-width="1.5" stroke-linecap="round" stroke-linejoin="round"/>
<path d="M25.8939 4.16136L22.7957 11.3757L16.6133 3.117M7.3314 4.13513L10.4207 11.3583L16.6133 3.117M16.5975 28.8982L10.4207 11.3583M16.5975 28.8982L22.7957 11.3757" stroke="#26335D" stroke-width="1.5" stroke-linecap="round" stroke-linejoin="round"/>
</svg>
