<svg width="276" height="1232" viewBox="0 0 276 1232" fill="none" xmlns="http://www.w3.org/2000/svg">
<mask id="mask0_260_1348" style="mask-type:alpha" maskUnits="userSpaceOnUse" x="-45" y="33" width="310" height="1167">
<rect x="-44.999" y="33.0002" width="309" height="1166" fill="#D9D9D9"/>
</mask>
<g mask="url(#mask0_260_1348)">
<path d="M-271.988 -1241.32C-272.274 -1206.36 -522.984 -907.181 -525.86 -555.548C-529.854 -67.0575 373.393 74.083 114.677 796.145C-90.4295 1368.58 -113.858 1611.22 24.8689 1692.34" stroke="#FFBD2A"/>
<path d="M-53.103 -1274.44C-72.4608 -1240.87 -521.981 -911.189 -524.52 -558.955C-528.048 -69.6299 281.855 165.878 21.891 888.95C-184.204 1462.19 -152.38 1543.93 -50.4778 1704.33" stroke="#FFBD2A"/>
<path d="M-405.06 -1219.17C-405.374 -1184.26 -529.965 -902.38 -533.128 -551.359C-537.522 -63.7206 512.686 61.3198 184.203 746.435C-55.3907 1246.15 -151.375 1535.1 -47.1957 1700.21" stroke="#FFBD2A"/>
</g>
</svg>
