<svg width="17" height="20" viewBox="0 0 17 20" fill="none" xmlns="http://www.w3.org/2000/svg">
<path d="M8.24945 8.76869C9.0773 8.76869 9.7484 8.13971 9.7484 7.36384C9.7484 6.58796 9.0773 5.95898 8.24945 5.95898C7.42159 5.95898 6.75049 6.58796 6.75049 7.36384C6.75049 8.13971 7.42159 8.76869 8.24945 8.76869Z" fill="white"/>
<path d="M8.24933 0.339355C6.14285 0.339257 4.12145 1.11835 2.62448 2.50731C1.12751 3.89627 0.275948 5.78284 0.254883 7.75697C0.254883 12.8894 7.29999 18.6024 7.59978 18.8459C7.78079 18.991 8.01114 19.0708 8.24933 19.0708C8.48751 19.0708 8.71787 18.991 8.89888 18.8459C9.24863 18.6024 16.2438 12.8894 16.2438 7.75697C16.2227 5.78284 15.3711 3.89627 13.8742 2.50731C12.3772 1.11835 10.3558 0.339257 8.24933 0.339355ZM8.24933 10.6416C7.55757 10.6416 6.88135 10.4493 6.30618 10.0892C5.73101 9.72896 5.28272 9.21701 5.01799 8.61804C4.75327 8.01907 4.68401 7.35997 4.81896 6.72411C4.95392 6.08824 5.28703 5.50416 5.77617 5.04572C6.26532 4.58729 6.88852 4.27509 7.56698 4.14861C8.24545 4.02213 8.94869 4.08704 9.58779 4.33515C10.2269 4.58325 10.7731 5.0034 11.1575 5.54246C11.5418 6.08152 11.7469 6.71528 11.7469 7.36361C11.7469 8.23298 11.3784 9.06675 10.7225 9.68149C10.0666 10.2962 9.17694 10.6416 8.24933 10.6416Z" fill="white"/>
</svg>
